<svg preserveAspectRatio="none" width="100%" height="100%" overflow="visible" style="display: block;" viewBox="0 0 299.087 65" fill="none" xmlns="http://www.w3.org/2000/svg">
<g id="voiager">
<path id="Union" d="M26.7646 0C30.4601 0 33.456 14.5509 33.4561 32.5C33.4561 50.4493 30.4601 65 26.7646 65C23.0692 64.9998 20.0732 50.4492 20.0732 32.5C20.0733 14.5509 23.0693 0.000154249 26.7646 0ZM214.153 20.7607C216.834 20.7607 219.2 21.3131 221.25 22.417C222.587 23.111 223.729 24.0659 224.681 25.2793V21.2344H233.434V47.7305C233.434 53.6447 231.896 58.0014 228.82 60.8008C225.745 63.6001 221.329 65 215.572 65C212.576 65 209.678 64.6251 206.879 63.876C204.119 63.1663 201.812 62.0819 199.959 60.623L203.626 53.999C204.966 55.103 206.662 55.9707 208.712 56.6016C210.802 57.2718 212.852 57.6074 214.863 57.6074C218.136 57.6074 220.501 56.8777 221.96 55.4189C223.458 53.9601 224.208 51.7914 224.208 48.9131V47.5322C223.358 48.4788 222.372 49.2552 221.25 49.8594C219.2 50.9633 216.834 51.5156 214.153 51.5156C211.196 51.5156 208.515 50.8848 206.109 49.623C203.744 48.322 201.832 46.5278 200.373 44.2412C198.954 41.915 198.244 39.2139 198.244 36.1387C198.244 33.0238 198.954 30.322 200.373 28.0352C201.832 25.7091 203.744 23.915 206.109 22.6533C208.515 21.3916 211.196 20.7607 214.153 20.7607ZM122.474 20.7607C125.825 20.7607 128.822 21.4712 131.464 22.8906C134.105 24.2706 136.176 26.1825 137.674 28.627C139.172 31.0715 139.921 33.9105 139.921 37.1436C139.921 40.2978 139.172 43.1176 137.674 45.6016C136.176 48.046 134.105 49.9781 131.464 51.3975C128.822 52.8169 125.825 53.5264 122.474 53.5264C119.083 53.5264 116.066 52.8168 113.425 51.3975C110.823 49.9781 108.753 48.046 107.215 45.6016C105.717 43.1176 104.968 40.2978 104.968 37.1436C104.968 33.95 105.717 31.131 107.215 28.6865C108.753 26.2026 110.823 24.2706 113.425 22.8906C116.066 21.4712 119.083 20.7608 122.474 20.7607ZM176.711 20.7607C181.561 20.7607 185.326 21.9047 188.007 24.1914C190.688 26.4783 192.029 30.0468 192.029 34.8965V53.0527H183.395V49.0957C182.7 50.265 181.754 51.2104 180.556 51.9297C178.781 52.9943 176.494 53.5264 173.694 53.5264C171.211 53.5263 169.082 53.112 167.308 52.2842C165.533 51.4168 164.173 50.2537 163.227 48.7949C162.28 47.3361 161.807 45.6995 161.807 43.8857C161.807 41.9933 162.26 40.3373 163.167 38.918C164.113 37.4986 165.592 36.394 167.603 35.6055C169.613 34.7775 172.236 34.3643 175.469 34.3643H182.803C182.803 32.3928 182.191 30.855 180.969 29.751C179.786 28.6471 177.953 28.0947 175.469 28.0947C173.773 28.0947 172.097 28.3709 170.441 28.9229C168.825 29.4354 167.445 30.145 166.302 31.0518L162.99 24.6055C164.725 23.3833 166.814 22.4369 169.259 21.7666C171.703 21.0963 174.188 20.7607 176.711 20.7607ZM256.629 20.7607C259.744 20.7607 262.543 21.431 265.027 22.7715C267.551 24.0726 269.542 25.9654 271.001 28.4492C272.46 30.8937 273.189 33.8315 273.189 37.2617C273.189 37.6166 273.169 38.0308 273.13 38.5039C273.09 38.9376 273.051 39.3518 273.012 39.7461H248.938C249.124 40.5929 249.42 41.3814 249.828 42.1113C250.617 43.4125 251.701 44.4182 253.081 45.1279C254.5 45.7981 256.156 46.1338 258.049 46.1338C259.744 46.1338 261.223 45.8768 262.484 45.3643C263.786 44.8517 264.969 44.0828 266.033 43.0576L270.942 48.3809C269.484 50.0369 267.649 51.3187 265.441 52.2256C263.234 53.0929 260.691 53.5263 257.812 53.5264C254.185 53.5264 250.991 52.8167 248.231 51.3975C245.511 49.9781 243.401 48.0461 241.902 45.6016C240.404 43.1176 239.655 40.2978 239.655 37.1436C239.655 33.9499 240.385 31.131 241.844 28.6865C243.342 26.2025 245.373 24.2706 247.936 22.8906C250.498 21.4713 253.396 20.7608 256.629 20.7607ZM86.4385 42.8965L95.5625 21.2344H104.435L91.0088 53.0527H81.4873L68.1211 21.2344H77.6426L86.4385 42.8965ZM155.314 53.0527H146.088V21.2344H155.314V53.0527ZM299.087 29.2773C298.693 29.2379 298.338 29.2188 298.022 29.2188C297.707 29.1793 297.371 29.1592 297.017 29.1592C294.493 29.1592 292.442 29.8888 290.865 31.3477C289.328 32.7671 288.56 34.9954 288.56 38.0312V53.0527H279.333V21.2344H288.146V25.4141C289.015 24.2281 290.118 23.2678 291.457 22.5352C293.547 21.3523 296.09 20.7607 299.087 20.7607V29.2773ZM15.1318 10.5146C17.5614 10.5152 17.1846 19.9302 17.1846 31.5439C17.1846 43.1579 17.5614 52.5737 15.1318 52.5742C12.702 52.5742 9.55859 43.1582 9.55859 31.5439C9.55867 19.9299 12.702 10.5146 15.1318 10.5146ZM38.293 10.5146C40.7228 10.5146 43.8661 19.9299 43.8662 31.5439C43.8662 43.1582 40.7228 52.5742 38.293 52.5742C35.8634 52.5736 36.2402 43.1578 36.2402 31.5439C36.2402 19.9303 35.8634 10.5153 38.293 10.5146ZM176.475 39.7461C174.306 39.7461 172.807 40.1008 171.979 40.8105C171.191 41.5202 170.797 42.4072 170.797 43.4717C170.797 44.6545 171.25 45.6008 172.157 46.3105C173.103 46.9808 174.385 47.3164 176.001 47.3164C177.539 47.3164 178.919 46.9617 180.142 46.252C181.364 45.5028 182.251 44.4183 182.803 42.999V39.7461H176.475ZM122.474 28.3311C120.936 28.3311 119.556 28.686 118.334 29.3955C117.112 30.1052 116.126 31.1111 115.377 32.4121C114.667 33.7132 114.312 35.2904 114.312 37.1436C114.312 38.9573 114.667 40.5344 115.377 41.875C116.126 43.1761 117.112 44.1819 118.334 44.8916C119.556 45.6012 120.936 45.956 122.474 45.9561C124.011 45.9561 125.391 45.6011 126.613 44.8916C127.836 44.1819 128.802 43.1761 129.512 41.875C130.221 40.5344 130.576 38.9572 130.576 37.1436C130.576 35.2904 130.221 33.7132 129.512 32.4121C128.802 31.111 127.836 30.1052 126.613 29.3955C125.391 28.686 124.011 28.3311 122.474 28.3311ZM215.986 28.3311C214.37 28.3311 212.931 28.6667 211.669 29.3369C210.407 29.9678 209.402 30.8749 208.653 32.0576C207.944 33.201 207.589 34.5615 207.589 36.1387C207.589 37.6762 207.944 39.036 208.653 40.2188C209.402 41.4016 210.407 42.3287 211.669 42.999C212.931 43.6298 214.37 43.9453 215.986 43.9453C217.603 43.9453 219.042 43.6297 220.304 42.999C221.565 42.3287 222.552 41.4016 223.262 40.2188C223.971 39.0361 224.326 37.676 224.326 36.1387C224.326 34.5617 223.971 33.201 223.262 32.0576C222.552 30.8748 221.565 29.9678 220.304 29.3369C219.042 28.6667 217.603 28.3311 215.986 28.3311ZM5.76074 21.0293C7.57869 21.0293 6.17194 25.737 6.17188 31.5439C6.17188 37.351 7.57873 42.0585 5.76074 42.0586C3.94271 42.0586 0 37.3511 0 31.5439C0.000183772 25.737 3.94275 21.0293 5.76074 21.0293ZM47.6641 21.0293C49.4821 21.0293 53.4246 25.737 53.4248 31.5439C53.4248 37.3511 49.4821 42.0586 47.6641 42.0586C45.8462 42.0584 47.2529 37.351 47.2529 31.5439C47.2529 25.7371 45.8462 21.0294 47.6641 21.0293ZM256.688 27.7402C255.111 27.7402 253.712 28.095 252.489 28.8047C251.307 29.4749 250.38 30.4407 249.71 31.7021C249.277 32.4908 248.985 33.3786 248.832 34.3643H264.499C264.349 33.3619 264.053 32.4549 263.608 31.6436C262.938 30.4213 262.011 29.475 260.828 28.8047C259.645 28.095 258.266 27.7402 256.688 27.7402ZM150.701 6.50781C152.397 6.50781 153.777 6.98047 154.842 7.92676C155.906 8.83361 156.438 10.0168 156.438 11.4756C156.438 13.0131 155.906 14.2943 154.842 15.3193C153.817 16.3051 152.436 16.7988 150.701 16.7988C149.006 16.7988 147.626 16.305 146.562 15.3193C145.497 14.3337 144.965 13.1119 144.965 11.6533C144.965 10.1945 145.497 8.97203 146.562 7.98633C147.626 7.00067 149.006 6.50787 150.701 6.50781Z" fill="url(#paint0_linear_827_197)"/>
</g>
<defs>
<linearGradient id="paint0_linear_827_197" x1="0" y1="32.5" x2="299.087" y2="32.5" gradientUnits="userSpaceOnUse">
<stop stop-color="#39C9E2"/>
<stop offset="0.495192" stop-color="#827EEA"/>
<stop offset="1" stop-color="#C857F2"/>
</linearGradient>
</defs>
</svg>
