<svg preserveAspectRatio="none" width="100%" height="100%" overflow="visible" style="display: block;" viewBox="0 0 138.013 37.489" fill="none" xmlns="http://www.w3.org/2000/svg">
<path id="Vector" d="M98.4202 0H101.828V3.40741H98.4202V0ZM128.586 8.01743C131.191 7.91721 133.597 9.01961 135.3 10.9237C137.104 13.0283 138.106 15.634 138.006 18.3399C138.006 18.4401 138.006 18.841 137.906 19.6427H122.272C122.473 23.2505 125.479 25.9564 129.087 25.8562C131.392 25.8562 133.496 24.9543 135.2 23.451L137.004 25.8562C134.799 27.8606 131.793 28.963 128.786 28.8627C126.08 28.963 123.475 27.9608 121.571 25.9564C119.666 23.9521 118.664 21.2462 118.764 18.4401C118.664 15.634 119.666 12.9281 121.571 10.9237C123.374 9.01961 125.98 8.01743 128.586 8.01743V8.01743ZM128.586 11.024C126.982 10.9237 125.479 11.5251 124.377 12.6275C123.274 13.7298 122.573 15.2331 122.372 16.8366H134.599C134.499 15.2331 133.797 13.7298 132.695 12.6275C131.492 11.6253 130.089 11.024 128.586 11.024V11.024ZM112.952 28.8627H109.544V0H112.952V28.8627ZM3.01282 11.4248C5.01718 9.42048 7.72306 8.31808 10.5292 8.4183C13.3353 8.31808 16.0411 9.42048 18.0455 11.4248C20.0499 13.329 21.1523 16.0349 21.052 18.841C21.1523 21.6471 20.0499 24.3529 18.0455 26.2571C16.0411 28.2614 13.3353 29.3638 10.5292 29.2636C7.72306 29.3638 5.01718 28.2614 3.01282 26.2571C1.00846 24.3529 -0.0939323 21.6471 0.00628554 18.841C-0.0939323 16.0349 1.00846 13.329 3.01282 11.4248V11.4248ZM10.5292 11.6253C8.62502 11.5251 6.8211 12.3268 5.51827 13.6296C4.21544 15.0327 3.41369 16.8366 3.51391 18.7407C3.41369 20.6449 4.21544 22.549 5.51827 23.8519C6.8211 25.1547 8.62502 25.9564 10.5292 25.8562C12.4333 25.9564 14.2372 25.1547 15.5401 23.8519C16.8429 22.4488 17.6446 20.6449 17.5444 18.7407C17.6446 16.8366 16.8429 14.9325 15.5401 13.6296C14.2372 12.3268 12.4333 11.6253 10.5292 11.6253V11.6253ZM65.1479 28.8627H61.7405V26.1569C60.0368 28.1612 57.4311 29.3638 54.7252 29.2636C52.0194 29.3638 49.4137 28.2614 47.6098 26.2571C45.7056 24.2527 44.6032 21.5468 44.7034 18.841C44.6032 16.0349 45.6054 13.4292 47.6098 11.4248C49.4137 9.5207 52.0194 8.4183 54.7252 8.51852C57.4311 8.4183 60.0368 9.5207 61.7405 11.6253V8.81917H65.1479V28.8627ZM55.1261 11.6253C53.222 11.5251 51.418 12.3268 50.1152 13.7298C48.8124 15.1329 48.1109 16.9368 48.2111 18.841C48.2111 20.7451 48.9126 22.549 50.2154 23.9521C52.9213 26.658 57.3309 26.658 60.0368 23.9521C61.3396 22.549 62.0411 20.7451 61.9409 18.841C62.0411 16.9368 61.3396 15.1329 60.0368 13.7298C58.7339 12.3268 56.93 11.6253 55.1261 11.6253V11.6253ZM101.828 28.8627H98.4202V8.81917H101.828V28.8627ZM80.7819 8.4183C83.4878 8.31808 85.9932 9.42048 87.6969 11.5251V8.81917H91.1043V27.3595C91.3048 30.1656 90.2024 32.8715 88.198 34.7756C86.0934 36.6797 83.2873 37.5817 80.4812 37.4815C75.6708 37.4815 73.3658 35.9782 73.3658 35.9782L75.3701 33.3726C76.9736 34.1743 78.6773 34.475 80.4812 34.475C82.3854 34.5752 84.2895 33.9739 85.6926 32.671C86.9954 31.3682 87.6969 29.5643 87.5967 27.6601V25.8562C85.9932 27.9608 83.3875 29.0632 80.6817 28.963C78.076 29.0632 75.4703 27.9608 73.5662 26.0566C71.6621 24.0523 70.6599 21.4466 70.7601 18.6405C70.6599 15.9346 71.6621 13.2288 73.5662 11.2244C75.5705 9.42048 78.1762 8.31808 80.7819 8.4183V8.4183ZM81.1827 11.6253C79.3788 11.5251 77.5749 12.3268 76.2721 13.6296C74.9692 15.0327 74.3679 16.8366 74.3679 18.6405C74.2677 20.4444 74.9692 22.2484 76.2721 23.6514C78.978 26.3573 83.2873 26.3573 85.9932 23.6514C87.296 22.3486 87.9976 20.5447 87.8973 18.6405C87.9976 16.7364 87.296 14.9325 85.9932 13.6296C84.7906 12.3268 83.0869 11.6253 81.1827 11.6253Z" fill="var(--fill-0, white)"/>
</svg>
