<svg preserveAspectRatio="none" width="100%" height="100%" overflow="visible" style="display: block;" viewBox="0 0 42 32" fill="none" xmlns="http://www.w3.org/2000/svg">
<path id="&#226;&#128;&#156;" d="M18.5143 0L12.0857 22.3056L9.77143 13.0402C12.6286 13.0402 14.9714 13.8695 16.8 15.5281C18.6286 17.1868 19.5429 19.4745 19.5429 22.3914C19.5429 25.3083 18.6 27.6533 16.7143 29.4263C14.8857 31.1421 12.5714 32 9.77143 32C6.97143 32 4.62857 31.1421 2.74286 29.4263C0.914286 27.6533 0 25.3083 0 22.3914C0 21.5907 0.0571428 20.79 0.171429 19.9893C0.342857 19.1886 0.628571 18.2163 1.02857 17.0724C1.42857 15.9285 2.02857 14.4415 2.82857 12.6113L8.31429 0H18.5143ZM40.9714 0L34.5429 22.3056L32.2286 13.0402C35.0857 13.0402 37.4286 13.8695 39.2571 15.5281C41.0857 17.1868 42 19.4745 42 22.3914C42 25.3083 41.0571 27.6533 39.1714 29.4263C37.3429 31.1421 35.0286 32 32.2286 32C29.4286 32 27.0857 31.1421 25.2 29.4263C23.3714 27.6533 22.4571 25.3083 22.4571 22.3914C22.4571 21.5907 22.5143 20.79 22.6286 19.9893C22.8 19.1886 23.0857 18.2163 23.4857 17.0724C23.8857 15.9285 24.4857 14.4415 25.2857 12.6113L30.7714 0H40.9714Z" fill="var(--fill-0, #E1E1E1)"/>
</svg>
